<svg xmlns="http://www.w3.org/2000/svg" xmlns:xlink="http://www.w3.org/1999/xlink" xml:space="preserve" version="1.1" style="shape-rendering:geometricPrecision;text-rendering:geometricPrecision;image-rendering:optimizeQuality;" viewBox="0 0 346 348.75" x="0px" y="0px" fill-rule="evenodd" clip-rule="evenodd"><defs><style type="text/css">
   
    .fil0 {fill:black}
   
  </style></defs><g><path className="fil0" d="M342 142l-160 -139c-4,-4 -11,-4 -15,0l-163 139c-11,10 4,27 15,18l20 -17 0 125c0,6 5,11 12,11l244 0c7,0 12,-5 12,-11l0 -125 20 17c11,10 26,-8 15,-18zm-280 -19l112 -96 110 95 0 134 -222 0 0 -133z"/></g><text x="0" y="294" fill="#000000" font-size="5px" font-weight="bold" font-family="'Helvetica Neue', Helvetica, Arial-Unicode, Arial, Sans-serif">Created by Humantech</text><text x="0" y="299" fill="#000000" font-size="5px" font-weight="bold" font-family="'Helvetica Neue', Helvetica, Arial-Unicode, Arial, Sans-serif">from the Noun Project</text></svg>