<svg xmlns="http://www.w3.org/2000/svg" xmlns:xlink="http://www.w3.org/1999/xlink" width="32" height="32" viewBox="0 0 32 32">
  <defs>
    <path id="icon_2019_spotify-a" d="M10,1.92708333 C5.39986559,1.92708333 1.66666667,5.54361979 1.66666667,10 C1.66666667,14.4563802 5.39986559,18.0729167 10,18.0729167 C14.6001344,18.0729167 18.3333333,14.4563802 18.3333333,10 C18.3333333,5.54361979 14.6001344,1.92708333 10,1.92708333 Z M13.3837366,13.8053385 C13.2426075,13.8053385 13.1552419,13.7630208 13.0241935,13.688151 C10.9274194,12.4641927 8.48790323,12.4121094 6.07862903,12.890625 C5.94758065,12.9231771 5.77620968,12.9752604 5.67876344,12.9752604 C5.35282258,12.9752604 5.14784946,12.7246094 5.14784946,12.4609375 C5.14784946,12.125651 5.35282258,11.9661458 5.60483871,11.9140625 C8.35685484,11.3248698 11.1693548,11.3769531 13.5685484,12.7669271 C13.7735215,12.8938802 13.8944892,13.0078125 13.8944892,13.3040365 C13.8944892,13.6002604 13.655914,13.8053385 13.3837366,13.8053385 L13.3837366,13.8053385 Z M14.2876344,11.6699219 C14.1129032,11.6699219 13.9952957,11.5950521 13.874328,11.5332031 C11.7741935,10.328776 8.64247312,9.84375 5.85685484,10.5761719 C5.69556452,10.6184896 5.60819892,10.6608073 5.45698925,10.6608073 C5.09744624,10.6608073 4.80510753,10.3776042 4.80510753,10.0292969 C4.80510753,9.68098958 4.97983871,9.44986979 5.32594086,9.35546875 C6.26008065,9.1015625 7.21438172,8.91276042 8.61223118,8.91276042 C10.7930108,8.91276042 12.8998656,9.43684896 14.5598118,10.3938802 C14.8319892,10.5501302 14.9395161,10.7519531 14.9395161,11.0351562 C14.9361559,11.3867187 14.6538978,11.6699219 14.2876344,11.6699219 L14.2876344,11.6699219 Z M15.3293011,9.18945312 C15.1545699,9.18945312 15.047043,9.14713542 14.8958333,9.0625 C12.5033602,7.67903646 8.22580645,7.34700521 5.45698925,8.09570312 C5.33602151,8.12825521 5.18481183,8.18033854 5.02352151,8.18033854 C4.57997312,8.18033854 4.2405914,7.84505208 4.2405914,7.41210938 C4.2405914,6.96940104 4.52284946,6.71875 4.82526882,6.63411458 C6.00806452,6.29882812 7.33198925,6.13932292 8.77352151,6.13932292 C11.2264785,6.13932292 13.797043,6.63411458 15.6754032,7.6953125 C15.9375,7.84179688 16.108871,8.04361979 16.108871,8.43098958 C16.108871,8.87369792 15.7392473,9.18945312 15.3293011,9.18945312 L15.3293011,9.18945312 Z"/>
  </defs>
  <g fill="none" fill-rule="evenodd">
    <circle cx="16" cy="16" r="16" fill="#776ECA"/>
    <use fill="#FFF" transform="translate(6 6)" xlink:href="#icon_2019_spotify-a"/>
  </g>
</svg>
