<svg xmlns="http://www.w3.org/2000/svg" xmlns:xlink="http://www.w3.org/1999/xlink" width="32" height="32" viewBox="0 0 32 32">
  <defs>
    <path id="icon_2019_youtube-a" d="M17.5710359,6.13524414 C17.389294,5.44237305 16.8538194,4.89668945 16.1739294,4.71150391 C14.9415799,4.375 10,4.375 10,4.375 C10,4.375 5.05844907,4.375 3.8260706,4.71150391 C3.14618056,4.89671875 2.61070602,5.44237305 2.42896412,6.13524414 C2.09875579,7.39111328 2.09875579,10.0113672 2.09875579,10.0113672 C2.09875579,10.0113672 2.09875579,12.6316211 2.42896412,13.8874902 C2.61070602,14.5803613 3.14618056,15.1033105 3.8260706,15.2884961 C5.05844907,15.625 10,15.625 10,15.625 C10,15.625 14.9415509,15.625 16.1739294,15.2884961 C16.8538194,15.1033105 17.389294,14.5803613 17.5710359,13.8874902 C17.9012442,12.6316211 17.9012442,10.0113672 17.9012442,10.0113672 C17.9012442,10.0113672 17.9012442,7.39111328 17.5710359,6.13524414 Z M8.38382523,12.3903613 L8.38382523,7.63237305 L12.5140046,10.0114258 L8.38382523,12.3903613 Z"/>
  </defs>
  <g fill="none" fill-rule="evenodd">
    <circle cx="16" cy="16" r="16" fill="#776ECA"/>
    <use fill="#FFF" transform="translate(6 6)" xlink:href="#icon_2019_youtube-a"/>
  </g>
</svg>
