<?xml version="1.0" encoding="utf-8"?>
<!-- Generator: Adobe Illustrator 17.0.0, SVG Export Plug-In . SVG Version: 6.00 Build 0)  -->
<!DOCTYPE svg PUBLIC "-//W3C//DTD SVG 1.1//EN" "http://www.w3.org/Graphics/SVG/1.1/DTD/svg11.dtd">
<svg version="1.1" xmlns="http://www.w3.org/2000/svg" xmlns:xlink="http://www.w3.org/1999/xlink" x="0px" y="0px" width="32px"
	 height="32px" viewBox="0 0 32 32" enable-background="new 0 0 32 32" xml:space="preserve">
<g id="Capa_1">
	<circle fill="#6B65A3" cx="16" cy="16" r="16"/>
	<path fill="#FFFFFF" d="M18.977,7.82h-2.343l-0.024,11.422c0,1.401-1.238,2.505-2.639,2.505c-1.401,0-2.537-1.136-2.537-2.537
		c0-1.401,1.136-2.537,2.537-2.537c0.105,0,0.205,0.019,0.307,0.031v-2.449c-0.102-0.006-0.203-0.016-0.307-0.016
		C11.225,14.239,9,16.464,9,19.21s2.225,4.971,4.971,4.971s4.971-2.225,4.971-4.971v-6.725c0.807,1.233,2.181,1.975,3.654,1.975
		c0.134-0.001,0.269-0.007,0.402-0.02H23v-2.722C20.893,11.563,19.198,9.921,18.977,7.82z"/>
</g>
<g id="Capa_2" display="none">
	<g display="inline">
		<circle fill="#6C65A4" cx="16" cy="16" r="16"/>
		<g transform="translate(6 6)">
			<path id="icon_2019_spotify-a" fill="#FFFFFF" d="M16,7.927c-4.6,0-8.333,3.617-8.333,8.073S11.4,24.073,16,24.073
				s8.333-3.617,8.333-8.073S20.6,7.927,16,7.927z M19.384,19.805c-0.141,0-0.228-0.042-0.36-0.117
				c-2.097-1.224-4.536-1.276-6.946-0.798c-0.131,0.033-0.302,0.085-0.4,0.085c-0.326,0-0.531-0.251-0.531-0.514
				c0-0.335,0.205-0.495,0.457-0.547c2.752-0.589,5.565-0.537,7.964,0.853c0.205,0.127,0.326,0.241,0.326,0.537
				C19.894,19.6,19.656,19.805,19.384,19.805L19.384,19.805z M20.288,17.67c-0.175,0-0.292-0.075-0.413-0.137
				c-2.1-1.204-5.232-1.689-8.017-0.957c-0.161,0.042-0.249,0.085-0.4,0.085c-0.36,0-0.652-0.283-0.652-0.632
				c0-0.348,0.175-0.579,0.521-0.674c0.934-0.254,1.888-0.443,3.286-0.443c2.181,0,4.288,0.524,5.948,1.481
				c0.272,0.156,0.38,0.358,0.38,0.641C20.936,17.387,20.654,17.67,20.288,17.67L20.288,17.67z M21.329,15.189
				c-0.175,0-0.282-0.042-0.433-0.127c-2.392-1.383-6.67-1.715-9.439-0.967c-0.121,0.033-0.272,0.085-0.433,0.085
				c-0.444,0-0.783-0.335-0.783-0.768c0-0.443,0.282-0.693,0.585-0.778c1.183-0.335,2.507-0.495,3.948-0.495
				c2.453,0,5.024,0.495,6.902,1.556c0.262,0.146,0.433,0.348,0.433,0.736C22.109,14.874,21.739,15.189,21.329,15.189L21.329,15.189
				z"/>
		</g>
	</g>
</g>
</svg>
