<svg xmlns="http://www.w3.org/2000/svg" xmlns:xlink="http://www.w3.org/1999/xlink" width="32" height="32" viewBox="0 0 32 32">
  <defs>
    <path id="icon_2019_instagram-a" d="M10.0016732,6.25976562 C7.87339654,6.25976562 6.15672058,7.9296875 6.15672058,10 C6.15672058,12.0703125 7.87339654,13.7402344 10.0016732,13.7402344 C12.1299498,13.7402344 13.8466258,12.0703125 13.8466258,10 C13.8466258,7.9296875 12.1299498,6.25976562 10.0016732,6.25976562 Z M10.0016732,12.4316406 C8.6263246,12.4316406 7.50195204,11.3411458 7.50195204,10 C7.50195204,8.65885417 8.62297825,7.56835937 10.0016732,7.56835937 C11.3803681,7.56835937 12.5013943,8.65885417 12.5013943,10 C12.5013943,11.3411458 11.3770218,12.4316406 10.0016732,12.4316406 L10.0016732,12.4316406 Z M14.900725,6.10677083 C14.900725,6.59179687 14.4991634,6.97916667 14.0039041,6.97916667 C13.5052984,6.97916667 13.1070831,6.58854167 13.1070831,6.10677083 C13.1070831,5.625 13.5086447,5.234375 14.0039041,5.234375 C14.4991634,5.234375 14.900725,5.625 14.900725,6.10677083 Z M17.447295,6.9921875 C17.3904071,5.82356771 17.1160067,4.78841146 16.2359175,3.93554687 C15.3591746,3.08268229 14.2950363,2.81575521 13.0936977,2.75716146 C11.8555494,2.68880208 8.14445064,2.68880208 6.90630229,2.75716146 C5.70831009,2.8125 4.64417178,3.07942708 3.76408254,3.93229167 C2.88399331,4.78515625 2.61293921,5.8203125 2.55270496,6.98893229 C2.48243168,8.19335937 2.48243168,11.8033854 2.55270496,13.0078125 C2.60959286,14.1764323 2.88399331,15.2115885 3.76408254,16.0644531 C4.64417178,16.9173177 5.70496375,17.1842448 6.90630229,17.2428385 C8.14445064,17.3111979 11.8555494,17.3111979 13.0936977,17.2428385 C14.2950363,17.1875 15.3591746,16.9205729 16.2359175,16.0644531 C17.1126603,15.2115885 17.3870608,14.1764323 17.447295,13.0078125 C17.5175683,11.8033854 17.5175683,8.19661458 17.447295,6.9921875 Z M15.8477412,14.3001302 C15.5867262,14.938151 15.0814278,15.4296875 14.4221974,15.686849 C13.4350251,16.0677083 11.0925823,15.9798177 10.0016732,15.9798177 C8.91076408,15.9798177 6.5649749,16.0644531 5.58114891,15.686849 C4.92526492,15.4329427 4.41996654,14.9414062 4.15560513,14.3001302 C3.76408254,13.3398437 3.85443391,11.0611979 3.85443391,10 C3.85443391,8.93880208 3.76742889,6.65690104 4.15560513,5.69986979 C4.41662019,5.06184896 4.92191857,4.5703125 5.58114891,4.31315104 C6.56832125,3.93229167 8.91076408,4.02018229 10.0016732,4.02018229 C11.0925823,4.02018229 13.4383714,3.93554687 14.4221974,4.31315104 C15.0780814,4.56705729 15.5833798,5.05859375 15.8477412,5.69986979 C16.2392638,6.66015625 16.1489124,8.93880208 16.1489124,10 C16.1489124,11.0611979 16.2392638,13.343099 15.8477412,14.3001302 Z"/>
  </defs>
  <g fill="none" fill-rule="evenodd">
    <circle cx="16" cy="16" r="16" fill="#776ECA"/>
    <use fill="#FFF" transform="translate(6 6)" xlink:href="#icon_2019_instagram-a"/>
  </g>
</svg>
