<svg xmlns="http://www.w3.org/2000/svg" xmlns:xlink="http://www.w3.org/1999/xlink" width="32" height="32" viewBox="0 0 32 32">
  <defs>
    <path id="icon_2019_twitter-a" d="M16.6201497,6.60532227 C16.6307292,6.75336914 16.6307292,6.90144857 16.6307292,7.04949544 C16.6307292,11.5651204 13.1937826,16.7681803 6.91204427,16.7681803 C4.97675781,16.7681803 3.17897135,16.207666 1.66669922,15.2347819 C1.94166667,15.2664876 2.20602214,15.2770671 2.49156901,15.2770671 C4.08841146,15.2770671 5.55839844,14.7377441 6.73225911,13.8176921 C5.23056641,13.7859538 3.97210286,12.8024577 3.53850911,11.4488118 C3.75003255,11.4805176 3.96152344,11.5016764 4.1836263,11.5016764 C4.49029948,11.5016764 4.79700521,11.4593587 5.08251953,11.3853678 C3.51738281,11.0680827 2.34348958,9.69331055 2.34348958,8.03299154 L2.34348958,7.99070638 C2.79820964,8.24451497 3.32701823,8.40314128 3.88746745,8.42426758 C2.96741536,7.81088867 2.36464844,6.76394857 2.36464844,5.57950846 C2.36464844,4.94500326 2.53382161,4.36336263 2.82994792,3.85574544 C4.51142578,5.92849935 7.03893229,7.28211263 9.87307943,7.43019206 C9.82021484,7.17638346 9.78847656,6.91202799 9.78847656,6.64763997 C9.78847656,4.7652181 11.3113281,3.23181966 13.2042969,3.23181966 C14.187793,3.23181966 15.0761068,3.64425456 15.7000651,4.31049805 C16.4720378,4.16245117 17.2123047,3.8769043 17.8680013,3.48562826 C17.6141602,4.27879232 17.0748372,4.94503581 16.3663086,5.36801758 C17.0537109,5.29402669 17.7199544,5.10362956 18.3333008,4.83927409 C17.8680664,5.51606445 17.2863932,6.11883138 16.6201497,6.60532227 Z"/>
  </defs>
  <g fill="none" fill-rule="evenodd">
    <circle cx="16" cy="16" r="16" fill="#776ECA"/>
    <use fill="#FFF" transform="translate(6 6)" xlink:href="#icon_2019_twitter-a"/>
  </g>
</svg>
